<svg width="32" height="26" viewBox="0 0 32 26" fill="none" xmlns="http://www.w3.org/2000/svg">
<path d="M3.46971 0C1.55269 0 0 1.27475 0 2.8486V22.7888C0 24.3626 1.55269 25.6374 3.46971 25.6374H27.7577C29.6747 25.6374 31.2274 24.3626 31.2274 22.7888V2.8486C31.2274 1.27475 29.6747 0 27.7577 0H3.46971ZM3.46971 2.8486H27.7577V22.7888H3.46971V2.8486ZM8.29138 4.72356C6.80461 4.72356 5.91273 5.45732 5.91273 6.43439C5.91273 7.41146 6.80472 8.14243 8.14229 8.14243C9.62906 8.14243 10.5209 7.41146 10.5209 6.43439C10.5209 5.45732 9.62895 4.72356 8.29138 4.72356ZM6.03133 9.9701V19.9402H10.4091V9.9701H6.03133ZM14.0211 9.9701V19.9402H18.3989V14.4906C18.3989 12.8683 19.8087 12.6351 20.232 12.6351C20.6554 12.6351 21.7873 12.9837 21.7873 14.4906V19.9402H26.0228V14.4906C26.0228 11.3614 24.3291 9.9701 22.2109 9.9701C20.0926 9.9701 18.9628 10.5492 18.3989 11.361V9.9701H14.0211Z" fill="#F6E0BF" fill-opacity="0.62"/>
</svg>
